<?xml version="1.0" encoding="UTF-8" standalone="no"?>
<!DOCTYPE svg PUBLIC "-//W3C//DTD SVG 1.1//EN"
 "http://www.w3.org/Graphics/SVG/1.1/DTD/svg11.dtd">
<!-- Generated by graphviz version 9.0.0 (20230911.1827)
 -->
<!-- Title: u1_3 Pages: 1 -->
<svg width="122pt" height="323pt"
 viewBox="0.00 0.00 121.75 323.25" xmlns="http://www.w3.org/2000/svg" xmlns:xlink="http://www.w3.org/1999/xlink">
<g id="graph0" class="graph" transform="scale(1 1) rotate(0) translate(4 319.25)">
<title>u1_3</title>
<!-- Node1 -->
<g id="Node000001" class="node">
<title>Node1</title>
<g id="a_Node000001"><a xlink:title="Converts a given amount of foreign currency into Czech Koruna (CZK).">
<polygon fill="#999999" stroke="#666666" points="113.75,-167.25 76.75,-167.25 76.75,-148 113.75,-148 113.75,-167.25"/>
<text text-anchor="middle" x="95.25" y="-153.75" font-family="Helvetica,sans-Serif" font-size="10.00">u1_3</text>
</a>
</g>
</g>
<!-- Node2 -->
<g id="Node000002" class="node">
<title>Node2</title>
<g id="a_Node000002"><a xlink:href="main_8cpp.html#ae66f6b31b5ad750f1fe042a706a4e3d4" target="_top" xlink:title="Main function of the application.">
<polygon fill="white" stroke="#666666" points="38.88,-315.25 1.88,-315.25 1.88,-296 38.88,-296 38.88,-315.25"/>
<text text-anchor="middle" x="20.38" y="-301.75" font-family="Helvetica,sans-Serif" font-size="10.00">main</text>
</a>
</g>
</g>
<!-- Node1&#45;&gt;Node2 -->
<g id="edge1_Node000001_Node000002" class="edge">
<title>Node1&#45;&gt;Node2</title>
<g id="a_edge1_Node000001_Node000002"><a xlink:title=" ">
<path fill="none" stroke="#63b8ff" d="M88.79,-178.21C81.02,-205.05 64.99,-252.67 40.75,-287.62 38.76,-290.49 36.25,-293.24 33.69,-295.7"/>
<polygon fill="#63b8ff" stroke="#63b8ff" points="92.06,-179.5 91.37,-168.92 85.32,-177.62 92.06,-179.5"/>
</a>
</g>
</g>
<!-- Node3 -->
<g id="Node000003" class="node">
<title>Node3</title>
<g id="a_Node000003"><a xlink:href="tests_8cpp.html#a7efab38c4b1c0754c6088f9788719c2e" target="_top" xlink:title="Test currency conversion from EUR to CZK.">
<polygon fill="white" stroke="#666666" points="40.75,-278.25 0,-278.25 0,-259 40.75,-259 40.75,-278.25"/>
<text text-anchor="middle" x="20.38" y="-264.75" font-family="Helvetica,sans-Serif" font-size="10.00">TEST</text>
</a>
</g>
</g>
<!-- Node1&#45;&gt;Node3 -->
<g id="edge2_Node000001_Node000003" class="edge">
<title>Node1&#45;&gt;Node3</title>
<g id="a_edge2_Node000001_Node000003"><a xlink:title=" ">
<path fill="none" stroke="#63b8ff" d="M84.79,-177.95C75.16,-197.57 59.07,-227.6 40.75,-250.62 38.46,-253.5 35.71,-256.33 33.01,-258.88"/>
<polygon fill="#63b8ff" stroke="#63b8ff" points="87.86,-179.64 89.02,-169.11 81.55,-176.61 87.86,-179.64"/>
</a>
</g>
</g>
<!-- Node4 -->
<g id="Node000004" class="node">
<title>Node4</title>
<g id="a_Node000004"><a xlink:href="tests_8cpp.html#a30d6bca42d5868c86f85797f6629b029" target="_top" xlink:title="Test currency conversion from GBP to CZK.">
<polygon fill="white" stroke="#666666" points="40.75,-241.25 0,-241.25 0,-222 40.75,-222 40.75,-241.25"/>
<text text-anchor="middle" x="20.38" y="-227.75" font-family="Helvetica,sans-Serif" font-size="10.00">TEST</text>
</a>
</g>
</g>
<!-- Node1&#45;&gt;Node4 -->
<g id="edge3_Node000001_Node000004" class="edge">
<title>Node1&#45;&gt;Node4</title>
<g id="a_edge3_Node000001_Node000004"><a xlink:title=" ">
<path fill="none" stroke="#63b8ff" d="M77.41,-175.8C67,-186.89 53.29,-201.26 40.75,-213.62 38,-216.33 34.97,-219.2 32.14,-221.83"/>
<polygon fill="#63b8ff" stroke="#63b8ff" points="79.66,-178.52 83.92,-168.82 74.54,-173.74 79.66,-178.52"/>
</a>
</g>
</g>
<!-- Node5 -->
<g id="Node000005" class="node">
<title>Node5</title>
<g id="a_Node000005"><a xlink:href="tests_8cpp.html#a3f3d2c5a7dc65ad8b084cdafe950c799" target="_top" xlink:title="Test currency conversion with rounding down scenario.">
<polygon fill="white" stroke="#666666" points="40.75,-204.25 0,-204.25 0,-185 40.75,-185 40.75,-204.25"/>
<text text-anchor="middle" x="20.38" y="-190.75" font-family="Helvetica,sans-Serif" font-size="10.00">TEST</text>
</a>
</g>
</g>
<!-- Node1&#45;&gt;Node5 -->
<g id="edge4_Node000001_Node000005" class="edge">
<title>Node1&#45;&gt;Node5</title>
<g id="a_edge4_Node000001_Node000005"><a xlink:title=" ">
<path fill="none" stroke="#63b8ff" d="M66.44,-171.75C58.02,-176.02 48.95,-180.63 41.17,-184.58"/>
<polygon fill="#63b8ff" stroke="#63b8ff" points="67.93,-174.91 75.26,-167.27 64.76,-168.67 67.93,-174.91"/>
</a>
</g>
</g>
<!-- Node6 -->
<g id="Node000006" class="node">
<title>Node6</title>
<g id="a_Node000006"><a xlink:href="tests_8cpp.html#abe03e13e0b0138202b84b239cdc149c2" target="_top" xlink:title="Test another currency conversion with rounding down scenario.">
<polygon fill="white" stroke="#666666" points="40.75,-167.25 0,-167.25 0,-148 40.75,-148 40.75,-167.25"/>
<text text-anchor="middle" x="20.38" y="-153.75" font-family="Helvetica,sans-Serif" font-size="10.00">TEST</text>
</a>
</g>
</g>
<!-- Node1&#45;&gt;Node6 -->
<g id="edge5_Node000001_Node000006" class="edge">
<title>Node1&#45;&gt;Node6</title>
<g id="a_edge5_Node000001_Node000006"><a xlink:title=" ">
<path fill="none" stroke="#63b8ff" d="M65.31,-157.62C57.21,-157.62 48.6,-157.62 41.17,-157.62"/>
<polygon fill="#63b8ff" stroke="#63b8ff" points="65.1,-161.13 75.1,-157.63 65.1,-154.13 65.1,-161.13"/>
</a>
</g>
</g>
<!-- Node7 -->
<g id="Node000007" class="node">
<title>Node7</title>
<g id="a_Node000007"><a xlink:href="tests_8cpp.html#a2a85583a4f5055170f189fbe4d6bb473" target="_top" xlink:title="Test currency conversion with rounding down for a third scenario.">
<polygon fill="white" stroke="#666666" points="40.75,-130.25 0,-130.25 0,-111 40.75,-111 40.75,-130.25"/>
<text text-anchor="middle" x="20.38" y="-116.75" font-family="Helvetica,sans-Serif" font-size="10.00">TEST</text>
</a>
</g>
</g>
<!-- Node1&#45;&gt;Node7 -->
<g id="edge6_Node000001_Node000007" class="edge">
<title>Node1&#45;&gt;Node7</title>
<g id="a_edge6_Node000001_Node000007"><a xlink:title=" ">
<path fill="none" stroke="#63b8ff" d="M66.44,-143.5C58.02,-139.23 48.95,-134.62 41.17,-130.67"/>
<polygon fill="#63b8ff" stroke="#63b8ff" points="64.76,-146.58 75.26,-147.98 67.93,-140.34 64.76,-146.58"/>
</a>
</g>
</g>
<!-- Node8 -->
<g id="Node000008" class="node">
<title>Node8</title>
<g id="a_Node000008"><a xlink:href="tests_8cpp.html#a33c12a4efaf1f3b230ffdfc1ce6a8201" target="_top" xlink:title="Test currency conversion from USD to CZK.">
<polygon fill="white" stroke="#666666" points="40.75,-93.25 0,-93.25 0,-74 40.75,-74 40.75,-93.25"/>
<text text-anchor="middle" x="20.38" y="-79.75" font-family="Helvetica,sans-Serif" font-size="10.00">TEST</text>
</a>
</g>
</g>
<!-- Node1&#45;&gt;Node8 -->
<g id="edge7_Node000001_Node000008" class="edge">
<title>Node1&#45;&gt;Node8</title>
<g id="a_edge7_Node000001_Node000008"><a xlink:title=" ">
<path fill="none" stroke="#63b8ff" d="M77.41,-139.45C67,-128.36 53.29,-113.99 40.75,-101.62 38,-98.92 34.97,-96.05 32.14,-93.42"/>
<polygon fill="#63b8ff" stroke="#63b8ff" points="74.54,-141.51 83.92,-146.43 79.66,-136.73 74.54,-141.51"/>
</a>
</g>
</g>
<!-- Node9 -->
<g id="Node000009" class="node">
<title>Node9</title>
<g id="a_Node000009"><a xlink:href="tests_8cpp.html#ad762b24d5475341a64d7d134c1c524dd" target="_top" xlink:title="Test currency conversion with a zero amount.">
<polygon fill="white" stroke="#666666" points="40.75,-56.25 0,-56.25 0,-37 40.75,-37 40.75,-56.25"/>
<text text-anchor="middle" x="20.38" y="-42.75" font-family="Helvetica,sans-Serif" font-size="10.00">TEST</text>
</a>
</g>
</g>
<!-- Node1&#45;&gt;Node9 -->
<g id="edge8_Node000001_Node000009" class="edge">
<title>Node1&#45;&gt;Node9</title>
<g id="a_edge8_Node000001_Node000009"><a xlink:title=" ">
<path fill="none" stroke="#63b8ff" d="M84.79,-137.3C75.16,-117.68 59.07,-87.65 40.75,-64.62 38.46,-61.75 35.71,-58.92 33.01,-56.37"/>
<polygon fill="#63b8ff" stroke="#63b8ff" points="81.55,-138.64 89.02,-146.14 87.86,-135.61 81.55,-138.64"/>
</a>
</g>
</g>
<!-- Node10 -->
<g id="Node000010" class="node">
<title>Node10</title>
<g id="a_Node000010"><a xlink:href="tests_8cpp.html#a678b2864c631092bbf7656f6cc5994d7" target="_top" xlink:title="Test currency conversion with a zero currency rate.">
<polygon fill="white" stroke="#666666" points="40.75,-19.25 0,-19.25 0,0 40.75,0 40.75,-19.25"/>
<text text-anchor="middle" x="20.38" y="-5.75" font-family="Helvetica,sans-Serif" font-size="10.00">TEST</text>
</a>
</g>
</g>
<!-- Node1&#45;&gt;Node10 -->
<g id="edge9_Node000001_Node000010" class="edge">
<title>Node1&#45;&gt;Node10</title>
<g id="a_edge9_Node000001_Node000010"><a xlink:title=" ">
<path fill="none" stroke="#63b8ff" d="M88.79,-137.04C81.02,-110.2 64.99,-62.58 40.75,-27.62 38.76,-24.76 36.25,-22.01 33.69,-19.55"/>
<polygon fill="#63b8ff" stroke="#63b8ff" points="85.32,-137.63 91.37,-146.33 92.06,-135.75 85.32,-137.63"/>
</a>
</g>
</g>
</g>
</svg>
