<?xml version="1.0" encoding="UTF-8" standalone="no"?>
<!DOCTYPE svg PUBLIC "-//W3C//DTD SVG 1.1//EN"
 "http://www.w3.org/Graphics/SVG/1.1/DTD/svg11.dtd">
<!-- Generated by graphviz version 9.0.0 (20230911.1827)
 -->
<!-- Title: u1_1 Pages: 1 -->
<!--zoomable 915 -->

<svg id="main" version="1.1" xmlns="http://www.w3.org/2000/svg" xmlns:xlink="http://www.w3.org/1999/xlink" xml:space="preserve" onload="init(evt)">
<style type="text/css"><![CDATA[
.node, .edge {opacity: 0.7;}
.node.selected, .edge.selected {opacity: 1;}
.edge:hover path { stroke: red; }
.edge:hover polygon { stroke: red; fill: red; }
]]></style>

<defs>
  <circle id="rim" cx="0" cy="0" r="7"/>
  <circle id="rim2" cx="0" cy="0" r="3.5"/>
  <g id="zoomPlus">
    <use xlink:href="#rim" fill="#404040"><set attributeName="fill" to="#808080" begin="zoomplus.mouseover" end="zoomplus.mouseout"/></use>
    <path d="M-4,0h8M0,-4v8" fill="none" stroke="white" stroke-width="1.5" pointer-events="none"/>
  </g>
  <g id="zoomMin">
    <use xlink:href="#rim" fill="#404040"><set attributeName="fill" to="#808080" begin="zoomminus.mouseover" end="zoomminus.mouseout"/></use>
    <path d="M-4,0h8" fill="none" stroke="white" stroke-width="1.5" pointer-events="none"/>
  </g>
  <g id="arrowUp" transform="translate(30 24)">
    <use xlink:href="#rim"/>
    <path pointer-events="none" fill="none" stroke="white" stroke-width="1.5" d="M0,-3.0v7 M-2.5,-0.5L0,-3.0L2.5,-0.5"/>
  </g>
  <g id="arrowRight" transform="rotate(90) translate(36 -43)">
    <use xlink:href="#rim"/>
    <path pointer-events="none" fill="none" stroke="white" stroke-width="1.5" d="M0,-3.0v7 M-2.5,-0.5L0,-3.0L2.5,-0.5"/>
  </g>
  <g id="arrowDown" transform="rotate(180) translate(-30 -48)">
    <use xlink:href="#rim"/>
    <path pointer-events="none" fill="none" stroke="white" stroke-width="1.5" d="M0,-3.0v7 M-2.5,-0.5L0,-3.0L2.5,-0.5"/>
  </g>
  <g id="arrowLeft" transform="rotate(270) translate(-36 17)">
    <use xlink:href="#rim"/>
    <path pointer-events="none" fill="none" stroke="white" stroke-width="1.5" d="M0,-3.0v7 M-2.5,-0.5L0,-3.0L2.5,-0.5"/>
  </g>
  <g id="resetDef">
    <use xlink:href="#rim2" fill="#404040"><set attributeName="fill" to="#808080" begin="reset.mouseover" end="reset.mouseout"/></use>
  </g>
</defs>
<script type="application/ecmascript">
var viewWidth = 122;
var viewHeight = 915;
var sectionId = 'dynsection-2';
</script>
<script type="application/ecmascript" xlink:href="svg.min.js"/>
<svg id="graph" class="graph">
<g id="viewport">
<title>u1_1</title>
<!-- Node1 -->
<g id="Node000001" class="node">
<title>Node1</title>
<g id="a_Node000001"><a xlink:title="Calculates and displays prices with VAT.">
<polygon fill="#999999" stroke="#666666" points="113.75,-463.25 76.75,-463.25 76.75,-444 113.75,-444 113.75,-463.25"/>
<text text-anchor="middle" x="95.25" y="-449.75" font-family="Helvetica,sans-Serif" font-size="10.00">u1_1</text>
</a>
</g>
</g>
<!-- Node2 -->
<g id="Node000002" class="node">
<title>Node2</title>
<g id="a_Node000002"><a xlink:href="main_8cpp.html#ae66f6b31b5ad750f1fe042a706a4e3d4" target="_top" xlink:title="Main function of the application.">
<polygon fill="white" stroke="#666666" points="38.88,-907.25 1.88,-907.25 1.88,-888 38.88,-888 38.88,-907.25"/>
<text text-anchor="middle" x="20.38" y="-893.75" font-family="Helvetica,sans-Serif" font-size="10.00">main</text>
</a>
</g>
</g>
<!-- Node1&#45;&gt;Node2 -->
<g id="edge1_Node000001_Node000002" class="edge">
<title>Node1&#45;&gt;Node2</title>
<g id="a_edge1_Node000001_Node000002"><a xlink:title=" ">
<path fill="none" stroke="#63b8ff" d="M93.49,-474.82C90.48,-550.61 77.7,-807.51 40.75,-879.62 39.24,-882.57 37.05,-885.28 34.68,-887.66"/>
<polygon fill="#63b8ff" stroke="#63b8ff" points="96.98,-475.19 93.86,-465.07 89.98,-474.93 96.98,-475.19"/>
</a>
</g>
</g>
<!-- Node3 -->
<g id="Node000003" class="node">
<title>Node3</title>
<g id="a_Node000003"><a xlink:href="tests_8cpp.html#a98ca68b1365fd79e94eb59ed96399307" target="_top" xlink:title="Tests VAT calculation for a sample scenario.">
<polygon fill="white" stroke="#666666" points="40.75,-870.25 0,-870.25 0,-851 40.75,-851 40.75,-870.25"/>
<text text-anchor="middle" x="20.38" y="-856.75" font-family="Helvetica,sans-Serif" font-size="10.00">TEST</text>
</a>
</g>
</g>
<!-- Node1&#45;&gt;Node3 -->
<g id="edge2_Node000001_Node000003" class="edge">
<title>Node1&#45;&gt;Node3</title>
<g id="a_edge2_Node000001_Node000003"><a xlink:title=" ">
<path fill="none" stroke="#63b8ff" d="M93.2,-474.8C89.39,-546.23 74.64,-777.43 40.75,-842.62 39.23,-845.56 37.03,-848.27 34.65,-850.64"/>
<polygon fill="#63b8ff" stroke="#63b8ff" points="96.68,-475.41 93.7,-465.25 89.69,-475.05 96.68,-475.41"/>
</a>
</g>
</g>
<!-- Node4 -->
<g id="Node000004" class="node">
<title>Node4</title>
<g id="a_Node000004"><a xlink:href="tests_8cpp.html#a30ce1a063c241f132ca596c5acbfbcf5" target="_top" xlink:title="Test VAT calculation for 101 items at 43 each.">
<polygon fill="white" stroke="#666666" points="40.75,-833.25 0,-833.25 0,-814 40.75,-814 40.75,-833.25"/>
<text text-anchor="middle" x="20.38" y="-819.75" font-family="Helvetica,sans-Serif" font-size="10.00">TEST</text>
</a>
</g>
</g>
<!-- Node1&#45;&gt;Node4 -->
<g id="edge3_Node000001_Node000004" class="edge">
<title>Node1&#45;&gt;Node4</title>
<g id="a_edge3_Node000001_Node000004"><a xlink:title=" ">
<path fill="none" stroke="#63b8ff" d="M92.85,-474.89C88.17,-541.85 71.57,-747.36 40.75,-805.62 39.2,-808.55 37,-811.25 34.62,-813.62"/>
<polygon fill="#63b8ff" stroke="#63b8ff" points="96.34,-475.15 93.53,-464.94 89.36,-474.68 96.34,-475.15"/>
</a>
</g>
</g>
<!-- Node5 -->
<g id="Node000005" class="node">
<title>Node5</title>
<g id="a_Node000005"><a xlink:href="tests_8cpp.html#a1a7b1c110a25f1e07b7ef5c197b2e8af" target="_top" xlink:title="Test VAT calculation for 10 items at 50 each.">
<polygon fill="white" stroke="#666666" points="40.75,-796.25 0,-796.25 0,-777 40.75,-777 40.75,-796.25"/>
<text text-anchor="middle" x="20.38" y="-782.75" font-family="Helvetica,sans-Serif" font-size="10.00">TEST</text>
</a>
</g>
</g>
<!-- Node1&#45;&gt;Node5 -->
<g id="edge4_Node000001_Node000005" class="edge">
<title>Node1&#45;&gt;Node5</title>
<g id="a_edge4_Node000001_Node000005"><a xlink:title=" ">
<path fill="none" stroke="#63b8ff" d="M92.41,-475.05C86.79,-537.34 68.5,-717.25 40.75,-768.62 39.18,-771.53 36.96,-774.23 34.58,-776.6"/>
<polygon fill="#63b8ff" stroke="#63b8ff" points="95.89,-475.41 93.29,-465.14 88.92,-474.79 95.89,-475.41"/>
</a>
</g>
</g>
<!-- Node6 -->
<g id="Node000006" class="node">
<title>Node6</title>
<g id="a_Node000006"><a xlink:href="tests_8cpp.html#ac68a13840a9620e093e590827091393a" target="_top" xlink:title="Test VAT calculation for 15 items at 10 each.">
<polygon fill="white" stroke="#666666" points="40.75,-759.25 0,-759.25 0,-740 40.75,-740 40.75,-759.25"/>
<text text-anchor="middle" x="20.38" y="-745.75" font-family="Helvetica,sans-Serif" font-size="10.00">TEST</text>
</a>
</g>
</g>
<!-- Node1&#45;&gt;Node6 -->
<g id="edge5_Node000001_Node000006" class="edge">
<title>Node1&#45;&gt;Node6</title>
<g id="a_edge5_Node000001_Node000006"><a xlink:title=" ">
<path fill="none" stroke="#63b8ff" d="M94.53,-474.95C94.29,-523.63 88.54,-645.4 40.75,-731.62 39.15,-734.52 36.91,-737.21 34.53,-739.58"/>
<polygon fill="#63b8ff" stroke="#63b8ff" points="98.03,-475.23 94.5,-465.24 91.03,-475.25 98.03,-475.23"/>
</a>
</g>
</g>
<!-- Node7 -->
<g id="Node000007" class="node">
<title>Node7</title>
<g id="a_Node000007"><a xlink:href="tests_8cpp.html#afa521a7446fc66da2cc144b9479d6387" target="_top" xlink:title="Test VAT calculation for 17 items at 13 each.">
<polygon fill="white" stroke="#666666" points="40.75,-722.25 0,-722.25 0,-703 40.75,-703 40.75,-722.25"/>
<text text-anchor="middle" x="20.38" y="-708.75" font-family="Helvetica,sans-Serif" font-size="10.00">TEST</text>
</a>
</g>
</g>
<!-- Node1&#45;&gt;Node7 -->
<g id="edge6_Node000001_Node000007" class="edge">
<title>Node1&#45;&gt;Node7</title>
<g id="a_edge6_Node000001_Node000007"><a xlink:title=" ">
<path fill="none" stroke="#63b8ff" d="M93.7,-475.01C91.7,-519.01 82.55,-621.67 40.75,-694.62 39.11,-697.49 36.85,-700.17 34.47,-702.54"/>
<polygon fill="#63b8ff" stroke="#63b8ff" points="97.19,-475.19 94.06,-465.07 90.2,-474.93 97.19,-475.19"/>
</a>
</g>
</g>
<!-- Node8 -->
<g id="Node000008" class="node">
<title>Node8</title>
<g id="a_Node000008"><a xlink:href="tests_8cpp.html#a0755e32016223095520928c6ad73d74f" target="_top" xlink:title="Test VAT calculation for 1 item at 1.">
<polygon fill="white" stroke="#666666" points="40.75,-685.25 0,-685.25 0,-666 40.75,-666 40.75,-685.25"/>
<text text-anchor="middle" x="20.38" y="-671.75" font-family="Helvetica,sans-Serif" font-size="10.00">TEST</text>
</a>
</g>
</g>
<!-- Node1&#45;&gt;Node8 -->
<g id="edge7_Node000001_Node000008" class="edge">
<title>Node1&#45;&gt;Node8</title>
<g id="a_edge7_Node000001_Node000008"><a xlink:title=" ">
<path fill="none" stroke="#63b8ff" d="M92.57,-475.12C88.7,-514.06 76.56,-597.79 40.75,-657.62 38.96,-660.62 36.52,-663.42 33.98,-665.88"/>
<polygon fill="#63b8ff" stroke="#63b8ff" points="96.05,-475.51 93.45,-465.24 89.08,-474.89 96.05,-475.51"/>
</a>
</g>
</g>
<!-- Node9 -->
<g id="Node000009" class="node">
<title>Node9</title>
<g id="a_Node000009"><a xlink:href="tests_8cpp.html#a7466529476d16f9dfbbaf707b1c00cfa" target="_top" xlink:title="Test VAT calculation for 1 item at 500.">
<polygon fill="white" stroke="#666666" points="40.75,-648.25 0,-648.25 0,-629 40.75,-629 40.75,-648.25"/>
<text text-anchor="middle" x="20.38" y="-634.75" font-family="Helvetica,sans-Serif" font-size="10.00">TEST</text>
</a>
</g>
</g>
<!-- Node1&#45;&gt;Node9 -->
<g id="edge8_Node000001_Node000009" class="edge">
<title>Node1&#45;&gt;Node9</title>
<g id="a_edge8_Node000001_Node000009"><a xlink:title=" ">
<path fill="none" stroke="#63b8ff" d="M91.11,-474.37C85.36,-507.45 70.87,-573.23 40.75,-620.62 38.88,-623.57 36.41,-626.35 33.87,-628.81"/>
<polygon fill="#63b8ff" stroke="#63b8ff" points="94.5,-475.33 92.65,-464.89 87.59,-474.2 94.5,-475.33"/>
</a>
</g>
</g>
<!-- Node10 -->
<g id="Node000010" class="node">
<title>Node10</title>
<g id="a_Node000010"><a xlink:href="tests_8cpp.html#a3d7ec5f2819fd4709d4247217fb2dd43" target="_top" xlink:title="Test VAT calculation for 20 items at 300 each.">
<polygon fill="white" stroke="#666666" points="40.75,-611.25 0,-611.25 0,-592 40.75,-592 40.75,-611.25"/>
<text text-anchor="middle" x="20.38" y="-597.75" font-family="Helvetica,sans-Serif" font-size="10.00">TEST</text>
</a>
</g>
</g>
<!-- Node1&#45;&gt;Node10 -->
<g id="edge9_Node000001_Node000010" class="edge">
<title>Node1&#45;&gt;Node10</title>
<g id="a_edge9_Node000001_Node000010"><a xlink:title=" ">
<path fill="none" stroke="#63b8ff" d="M88.79,-474.21C81.02,-501.05 64.99,-548.67 40.75,-583.62 38.76,-586.49 36.25,-589.24 33.69,-591.7"/>
<polygon fill="#63b8ff" stroke="#63b8ff" points="92.06,-475.5 91.37,-464.92 85.32,-473.62 92.06,-475.5"/>
</a>
</g>
</g>
<!-- Node11 -->
<g id="Node000011" class="node">
<title>Node11</title>
<g id="a_Node000011"><a xlink:href="tests_8cpp.html#afafd2e0bdb4f7e24d8fa34212d90648f" target="_top" xlink:title="Test VAT calculation for 29 items at 19 each.">
<polygon fill="white" stroke="#666666" points="40.75,-574.25 0,-574.25 0,-555 40.75,-555 40.75,-574.25"/>
<text text-anchor="middle" x="20.38" y="-560.75" font-family="Helvetica,sans-Serif" font-size="10.00">TEST</text>
</a>
</g>
</g>
<!-- Node1&#45;&gt;Node11 -->
<g id="edge10_Node000001_Node000011" class="edge">
<title>Node1&#45;&gt;Node11</title>
<g id="a_edge10_Node000001_Node000011"><a xlink:title=" ">
<path fill="none" stroke="#63b8ff" d="M84.79,-473.95C75.16,-493.57 59.07,-523.6 40.75,-546.62 38.46,-549.5 35.71,-552.33 33.01,-554.88"/>
<polygon fill="#63b8ff" stroke="#63b8ff" points="87.86,-475.64 89.02,-465.11 81.55,-472.61 87.86,-475.64"/>
</a>
</g>
</g>
<!-- Node12 -->
<g id="Node000012" class="node">
<title>Node12</title>
<g id="a_Node000012"><a xlink:href="tests_8cpp.html#ac6ef98cbf6d7ccaeed9c0b4d62a3c992" target="_top" xlink:title="Test VAT calculation for 2 items at 150 each.">
<polygon fill="white" stroke="#666666" points="40.75,-537.25 0,-537.25 0,-518 40.75,-518 40.75,-537.25"/>
<text text-anchor="middle" x="20.38" y="-523.75" font-family="Helvetica,sans-Serif" font-size="10.00">TEST</text>
</a>
</g>
</g>
<!-- Node1&#45;&gt;Node12 -->
<g id="edge11_Node000001_Node000012" class="edge">
<title>Node1&#45;&gt;Node12</title>
<g id="a_edge11_Node000001_Node000012"><a xlink:title=" ">
<path fill="none" stroke="#63b8ff" d="M77.41,-471.8C67,-482.89 53.29,-497.26 40.75,-509.62 38,-512.33 34.97,-515.2 32.14,-517.83"/>
<polygon fill="#63b8ff" stroke="#63b8ff" points="79.66,-474.52 83.92,-464.82 74.54,-469.74 79.66,-474.52"/>
</a>
</g>
</g>
<!-- Node13 -->
<g id="Node000013" class="node">
<title>Node13</title>
<g id="a_Node000013"><a xlink:href="tests_8cpp.html#a33374beabc39531781c64c49a62448ae" target="_top" xlink:title="Test VAT calculation for 3 items at 200 each.">
<polygon fill="white" stroke="#666666" points="40.75,-500.25 0,-500.25 0,-481 40.75,-481 40.75,-500.25"/>
<text text-anchor="middle" x="20.38" y="-486.75" font-family="Helvetica,sans-Serif" font-size="10.00">TEST</text>
</a>
</g>
</g>
<!-- Node1&#45;&gt;Node13 -->
<g id="edge12_Node000001_Node000013" class="edge">
<title>Node1&#45;&gt;Node13</title>
<g id="a_edge12_Node000001_Node000013"><a xlink:title=" ">
<path fill="none" stroke="#63b8ff" d="M66.44,-467.75C58.02,-472.02 48.95,-476.63 41.17,-480.58"/>
<polygon fill="#63b8ff" stroke="#63b8ff" points="67.93,-470.91 75.26,-463.27 64.76,-464.67 67.93,-470.91"/>
</a>
</g>
</g>
<!-- Node14 -->
<g id="Node000014" class="node">
<title>Node14</title>
<g id="a_Node000014"><a xlink:href="tests_8cpp.html#a45cda6cc53c1d974bc36ad9e30cacec8" target="_top" xlink:title="Test VAT calculation for 3 items at 7 each.">
<polygon fill="white" stroke="#666666" points="40.75,-463.25 0,-463.25 0,-444 40.75,-444 40.75,-463.25"/>
<text text-anchor="middle" x="20.38" y="-449.75" font-family="Helvetica,sans-Serif" font-size="10.00">TEST</text>
</a>
</g>
</g>
<!-- Node1&#45;&gt;Node14 -->
<g id="edge13_Node000001_Node000014" class="edge">
<title>Node1&#45;&gt;Node14</title>
<g id="a_edge13_Node000001_Node000014"><a xlink:title=" ">
<path fill="none" stroke="#63b8ff" d="M65.31,-453.62C57.21,-453.62 48.6,-453.62 41.17,-453.62"/>
<polygon fill="#63b8ff" stroke="#63b8ff" points="65.1,-457.13 75.1,-453.63 65.1,-450.13 65.1,-457.13"/>
</a>
</g>
</g>
<!-- Node15 -->
<g id="Node000015" class="node">
<title>Node15</title>
<g id="a_Node000015"><a xlink:href="tests_8cpp.html#a85e31f2e33c8f13a1fc44488f1027a18" target="_top" xlink:title="Test VAT calculation for 47 items at 31 each.">
<polygon fill="white" stroke="#666666" points="40.75,-426.25 0,-426.25 0,-407 40.75,-407 40.75,-426.25"/>
<text text-anchor="middle" x="20.38" y="-412.75" font-family="Helvetica,sans-Serif" font-size="10.00">TEST</text>
</a>
</g>
</g>
<!-- Node1&#45;&gt;Node15 -->
<g id="edge14_Node000001_Node000015" class="edge">
<title>Node1&#45;&gt;Node15</title>
<g id="a_edge14_Node000001_Node000015"><a xlink:title=" ">
<path fill="none" stroke="#63b8ff" d="M66.44,-439.5C58.02,-435.23 48.95,-430.62 41.17,-426.67"/>
<polygon fill="#63b8ff" stroke="#63b8ff" points="64.76,-442.58 75.26,-443.98 67.93,-436.34 64.76,-442.58"/>
</a>
</g>
</g>
<!-- Node16 -->
<g id="Node000016" class="node">
<title>Node16</title>
<g id="a_Node000016"><a xlink:href="tests_8cpp.html#ad613524706732c59a8a02ad9f3c01e5e" target="_top" xlink:title="Test VAT calculation for 4 items at 25 each.">
<polygon fill="white" stroke="#666666" points="40.75,-389.25 0,-389.25 0,-370 40.75,-370 40.75,-389.25"/>
<text text-anchor="middle" x="20.38" y="-375.75" font-family="Helvetica,sans-Serif" font-size="10.00">TEST</text>
</a>
</g>
</g>
<!-- Node1&#45;&gt;Node16 -->
<g id="edge15_Node000001_Node000016" class="edge">
<title>Node1&#45;&gt;Node16</title>
<g id="a_edge15_Node000001_Node000016"><a xlink:title=" ">
<path fill="none" stroke="#63b8ff" d="M77.41,-435.45C67,-424.36 53.29,-409.99 40.75,-397.62 38,-394.92 34.97,-392.05 32.14,-389.42"/>
<polygon fill="#63b8ff" stroke="#63b8ff" points="74.54,-437.51 83.92,-442.43 79.66,-432.73 74.54,-437.51"/>
</a>
</g>
</g>
<!-- Node17 -->
<g id="Node000017" class="node">
<title>Node17</title>
<g id="a_Node000017"><a xlink:href="tests_8cpp.html#adc219db3b96601910aef40e2f797afc1" target="_top" xlink:title="Test VAT calculation for 50 items at 25 each.">
<polygon fill="white" stroke="#666666" points="40.75,-352.25 0,-352.25 0,-333 40.75,-333 40.75,-352.25"/>
<text text-anchor="middle" x="20.38" y="-338.75" font-family="Helvetica,sans-Serif" font-size="10.00">TEST</text>
</a>
</g>
</g>
<!-- Node1&#45;&gt;Node17 -->
<g id="edge16_Node000001_Node000017" class="edge">
<title>Node1&#45;&gt;Node17</title>
<g id="a_edge16_Node000001_Node000017"><a xlink:title=" ">
<path fill="none" stroke="#63b8ff" d="M84.79,-433.3C75.16,-413.68 59.07,-383.65 40.75,-360.62 38.46,-357.75 35.71,-354.92 33.01,-352.37"/>
<polygon fill="#63b8ff" stroke="#63b8ff" points="81.55,-434.64 89.02,-442.14 87.86,-431.61 81.55,-434.64"/>
</a>
</g>
</g>
<!-- Node18 -->
<g id="Node000018" class="node">
<title>Node18</title>
<g id="a_Node000018"><a xlink:href="tests_8cpp.html#af6055a16169994cd1315cc88eb580acb" target="_top" xlink:title="Test VAT calculation for 59 items at 41 each.">
<polygon fill="white" stroke="#666666" points="40.75,-315.25 0,-315.25 0,-296 40.75,-296 40.75,-315.25"/>
<text text-anchor="middle" x="20.38" y="-301.75" font-family="Helvetica,sans-Serif" font-size="10.00">TEST</text>
</a>
</g>
</g>
<!-- Node1&#45;&gt;Node18 -->
<g id="edge17_Node000001_Node000018" class="edge">
<title>Node1&#45;&gt;Node18</title>
<g id="a_edge17_Node000001_Node000018"><a xlink:title=" ">
<path fill="none" stroke="#63b8ff" d="M88.79,-433.04C81.02,-406.2 64.99,-358.58 40.75,-323.62 38.76,-320.76 36.25,-318.01 33.69,-315.55"/>
<polygon fill="#63b8ff" stroke="#63b8ff" points="85.32,-433.63 91.37,-442.33 92.06,-431.75 85.32,-433.63"/>
</a>
</g>
</g>
<!-- Node19 -->
<g id="Node000019" class="node">
<title>Node19</title>
<g id="a_Node000019"><a xlink:href="tests_8cpp.html#a0751ce174aef7891f623c3ea0d1bb2e5" target="_top" xlink:title="Test VAT calculation for 5 items at 5 each.">
<polygon fill="white" stroke="#666666" points="40.75,-278.25 0,-278.25 0,-259 40.75,-259 40.75,-278.25"/>
<text text-anchor="middle" x="20.38" y="-264.75" font-family="Helvetica,sans-Serif" font-size="10.00">TEST</text>
</a>
</g>
</g>
<!-- Node1&#45;&gt;Node19 -->
<g id="edge18_Node000001_Node000019" class="edge">
<title>Node1&#45;&gt;Node19</title>
<g id="a_edge18_Node000001_Node000019"><a xlink:title=" ">
<path fill="none" stroke="#63b8ff" d="M91.11,-432.88C85.36,-399.8 70.87,-334.02 40.75,-286.62 38.88,-283.68 36.41,-280.9 33.87,-278.44"/>
<polygon fill="#63b8ff" stroke="#63b8ff" points="87.59,-433.05 92.65,-442.36 94.5,-431.92 87.59,-433.05"/>
</a>
</g>
</g>
<!-- Node20 -->
<g id="Node000020" class="node">
<title>Node20</title>
<g id="a_Node000020"><a xlink:href="tests_8cpp.html#ab1d4b7d84751c0328fc4d8020d027bb0" target="_top" xlink:title="Test VAT calculation for 67 items at 23 each.">
<polygon fill="white" stroke="#666666" points="40.75,-241.25 0,-241.25 0,-222 40.75,-222 40.75,-241.25"/>
<text text-anchor="middle" x="20.38" y="-227.75" font-family="Helvetica,sans-Serif" font-size="10.00">TEST</text>
</a>
</g>
</g>
<!-- Node1&#45;&gt;Node20 -->
<g id="edge19_Node000001_Node000020" class="edge">
<title>Node1&#45;&gt;Node20</title>
<g id="a_edge19_Node000001_Node000020"><a xlink:title=" ">
<path fill="none" stroke="#63b8ff" d="M92.57,-432.13C88.7,-393.19 76.56,-309.46 40.75,-249.62 38.96,-246.63 36.52,-243.83 33.98,-241.37"/>
<polygon fill="#63b8ff" stroke="#63b8ff" points="89.08,-432.36 93.45,-442.01 96.05,-431.74 89.08,-432.36"/>
</a>
</g>
</g>
<!-- Node21 -->
<g id="Node000021" class="node">
<title>Node21</title>
<g id="a_Node000021"><a xlink:href="tests_8cpp.html#a738c8e1c63429b65bf0eabb98fccbff4" target="_top" xlink:title="Test VAT calculation for 79 items at 37 each.">
<polygon fill="white" stroke="#666666" points="40.75,-204.25 0,-204.25 0,-185 40.75,-185 40.75,-204.25"/>
<text text-anchor="middle" x="20.38" y="-190.75" font-family="Helvetica,sans-Serif" font-size="10.00">TEST</text>
</a>
</g>
</g>
<!-- Node1&#45;&gt;Node21 -->
<g id="edge20_Node000001_Node000021" class="edge">
<title>Node1&#45;&gt;Node21</title>
<g id="a_edge20_Node000001_Node000021"><a xlink:title=" ">
<path fill="none" stroke="#63b8ff" d="M93.7,-432.24C91.7,-388.24 82.55,-285.58 40.75,-212.62 39.11,-209.76 36.85,-207.08 34.47,-204.71"/>
<polygon fill="#63b8ff" stroke="#63b8ff" points="90.2,-432.32 94.06,-442.18 97.19,-432.06 90.2,-432.32"/>
</a>
</g>
</g>
<!-- Node22 -->
<g id="Node000022" class="node">
<title>Node22</title>
<g id="a_Node000022"><a xlink:href="tests_8cpp.html#ad3d310a940a82461aa85eabb61b4ec6b" target="_top" xlink:title="Test VAT calculation for 7 items at 70 each.">
<polygon fill="white" stroke="#666666" points="40.75,-167.25 0,-167.25 0,-148 40.75,-148 40.75,-167.25"/>
<text text-anchor="middle" x="20.38" y="-153.75" font-family="Helvetica,sans-Serif" font-size="10.00">TEST</text>
</a>
</g>
</g>
<!-- Node1&#45;&gt;Node22 -->
<g id="edge21_Node000001_Node000022" class="edge">
<title>Node1&#45;&gt;Node22</title>
<g id="a_edge21_Node000001_Node000022"><a xlink:title=" ">
<path fill="none" stroke="#63b8ff" d="M94.53,-432.3C94.29,-383.62 88.54,-261.85 40.75,-175.62 39.15,-172.73 36.91,-170.04 34.53,-167.67"/>
<polygon fill="#63b8ff" stroke="#63b8ff" points="91.03,-432 94.5,-442.01 98.03,-432.02 91.03,-432"/>
</a>
</g>
</g>
<!-- Node23 -->
<g id="Node000023" class="node">
<title>Node23</title>
<g id="a_Node000023"><a xlink:href="tests_8cpp.html#a4d50fb68c55aebc0b68a31dc0c7dc1cb" target="_top" xlink:title="Test VAT calculation for 89 items at 53 each.">
<polygon fill="white" stroke="#666666" points="40.75,-130.25 0,-130.25 0,-111 40.75,-111 40.75,-130.25"/>
<text text-anchor="middle" x="20.38" y="-116.75" font-family="Helvetica,sans-Serif" font-size="10.00">TEST</text>
</a>
</g>
</g>
<!-- Node1&#45;&gt;Node23 -->
<g id="edge22_Node000001_Node000023" class="edge">
<title>Node1&#45;&gt;Node23</title>
<g id="a_edge22_Node000001_Node000023"><a xlink:title=" ">
<path fill="none" stroke="#63b8ff" d="M92.41,-432.2C86.79,-369.91 68.5,-190 40.75,-138.62 39.18,-135.72 36.96,-133.02 34.58,-130.65"/>
<polygon fill="#63b8ff" stroke="#63b8ff" points="88.92,-432.46 93.29,-442.11 95.89,-431.84 88.92,-432.46"/>
</a>
</g>
</g>
<!-- Node24 -->
<g id="Node000024" class="node">
<title>Node24</title>
<g id="a_Node000024"><a xlink:href="tests_8cpp.html#af56115fe95c6ea174776c9e913f659c7" target="_top" xlink:title="Test VAT calculation for 97 items at 29 each.">
<polygon fill="white" stroke="#666666" points="40.75,-93.25 0,-93.25 0,-74 40.75,-74 40.75,-93.25"/>
<text text-anchor="middle" x="20.38" y="-79.75" font-family="Helvetica,sans-Serif" font-size="10.00">TEST</text>
</a>
</g>
</g>
<!-- Node1&#45;&gt;Node24 -->
<g id="edge23_Node000001_Node000024" class="edge">
<title>Node1&#45;&gt;Node24</title>
<g id="a_edge23_Node000001_Node000024"><a xlink:title=" ">
<path fill="none" stroke="#63b8ff" d="M92.85,-432.36C88.17,-365.4 71.57,-159.89 40.75,-101.62 39.2,-98.7 37,-96 34.62,-93.63"/>
<polygon fill="#63b8ff" stroke="#63b8ff" points="89.36,-432.57 93.53,-442.31 96.34,-432.1 89.36,-432.57"/>
</a>
</g>
</g>
<!-- Node25 -->
<g id="Node000025" class="node">
<title>Node25</title>
<g id="a_Node000025"><a xlink:href="tests_8cpp.html#a97670fbdd95ed40e13cada2722db70f6" target="_top" xlink:title="Tests VAT calculation for a single item.">
<polygon fill="white" stroke="#666666" points="40.75,-56.25 0,-56.25 0,-37 40.75,-37 40.75,-56.25"/>
<text text-anchor="middle" x="20.38" y="-42.75" font-family="Helvetica,sans-Serif" font-size="10.00">TEST</text>
</a>
</g>
</g>
<!-- Node1&#45;&gt;Node25 -->
<g id="edge24_Node000001_Node000025" class="edge">
<title>Node1&#45;&gt;Node25</title>
<g id="a_edge24_Node000001_Node000025"><a xlink:title=" ">
<path fill="none" stroke="#63b8ff" d="M93.2,-432.45C89.39,-361.02 74.64,-129.82 40.75,-64.62 39.23,-61.69 37.03,-58.98 34.65,-56.61"/>
<polygon fill="#63b8ff" stroke="#63b8ff" points="89.69,-432.2 93.7,-442 96.68,-431.84 89.69,-432.2"/>
</a>
</g>
</g>
<!-- Node26 -->
<g id="Node000026" class="node">
<title>Node26</title>
<g id="a_Node000026"><a xlink:href="tests_8cpp.html#a6b2734d0a96092f14035440344235fd2" target="_top" xlink:title="Tests VAT calculation with zero items.">
<polygon fill="white" stroke="#666666" points="40.75,-19.25 0,-19.25 0,0 40.75,0 40.75,-19.25"/>
<text text-anchor="middle" x="20.38" y="-5.75" font-family="Helvetica,sans-Serif" font-size="10.00">TEST</text>
</a>
</g>
</g>
<!-- Node1&#45;&gt;Node26 -->
<g id="edge25_Node000001_Node000026" class="edge">
<title>Node1&#45;&gt;Node26</title>
<g id="a_edge25_Node000001_Node000026"><a xlink:title=" ">
<path fill="none" stroke="#63b8ff" d="M93.49,-432.43C90.48,-356.64 77.7,-99.74 40.75,-27.62 39.24,-24.68 37.05,-21.97 34.68,-19.59"/>
<polygon fill="#63b8ff" stroke="#63b8ff" points="89.98,-432.32 93.86,-442.18 96.98,-432.06 89.98,-432.32"/>
</a>
</g>
</g>
</g>
</svg>

<g id="navigator" transform="translate(0 0)" fill="#404254">
  <rect fill="#f2f5e9" fill-opacity="0.5" stroke="#606060" stroke-width=".5" x="0" y="0" width="60" height="60"/>
  <use id="zoomplus" xlink:href="#zoomPlus" x="17" y="9" onmousedown="handleZoom(evt,'in')"/>
  <use id="zoomminus" xlink:href="#zoomMin" x="42" y="9" onmousedown="handleZoom(evt,'out')"/>
  <use id="reset" xlink:href="#resetDef" x="30" y="36" onmousedown="handleReset()"/>
   <use id="arrowup" xlink:href="#arrowUp" x="0" y="0" onmousedown="handlePan(0,-1)"/>
  <use id="arrowright" xlink:href="#arrowRight" x="0" y="0" onmousedown="handlePan(1,0)"/>
  <use id="arrowdown" xlink:href="#arrowDown" x="0" y="0" onmousedown="handlePan(0,1)"/>
  <use id="arrowleft" xlink:href="#arrowLeft" x="0" y="0" onmousedown="handlePan(-1,0)"/>
</g>
<svg viewBox="0 0 15 15" width="100%" height="30px" preserveAspectRatio="xMaxYMin meet">
 <g id="arrow_out" transform="scale(0.3 0.3)">
  <a xlink:href="functions_8h_abe4c78ba7d348a0b3627fd494ce46441_icgraph_org.svg" target="_base">
   <rect id="button" ry="5" rx="5" y="6" x="6" height="38" width="38"
        fill="#f2f5e9" fill-opacity="0.5" stroke="#606060" stroke-width="1.0"/>
   <path id="arrow"
     d="M 11.500037,31.436501 C 11.940474,20.09759 22.043105,11.32322 32.158766,21.979434 L 37.068811,17.246167 C 37.068811,17.246167 37.088388,32 37.088388,32 L 22.160133,31.978069 C 22.160133,31.978069 26.997745,27.140456 26.997745,27.140456 C 18.528582,18.264221 13.291696,25.230495 11.500037,31.436501 z"
     style="fill:#404040;"/>
  </a>
 </g>
</svg>

<style type='text/css'>
<![CDATA[
[data-mouse-over-selected='false'] { opacity: 0.7; }
[data-mouse-over-selected='true']  { opacity: 1.0; }
]]>
</style>
<script type="application/ecmascript"><![CDATA[
document.addEventListener('DOMContentLoaded', (event) => {
  highlightEdges();
  highlightAdjacentNodes();
});
]]></script>
</svg>
