<?xml version="1.0" encoding="UTF-8" standalone="no"?>
<!DOCTYPE svg PUBLIC "-//W3C//DTD SVG 1.1//EN"
 "http://www.w3.org/Graphics/SVG/1.1/DTD/svg11.dtd">
<!-- Generated by graphviz version 9.0.0 (20230911.1827)
 -->
<!-- Title: u1_2 Pages: 1 -->
<svg width="122pt" height="286pt"
 viewBox="0.00 0.00 121.75 286.25" xmlns="http://www.w3.org/2000/svg" xmlns:xlink="http://www.w3.org/1999/xlink">

<svg id="main" version="1.1" xmlns="http://www.w3.org/2000/svg" xmlns:xlink="http://www.w3.org/1999/xlink" xml:space="preserve" onload="init(evt)">
<style type="text/css"><![CDATA[
.node, .edge {opacity: 0.7;}
.node.selected, .edge.selected {opacity: 1;}
.edge:hover path { stroke: red; }
.edge:hover polygon { stroke: red; fill: red; }
]]></style>
<script type="application/ecmascript" xlink:href="svg.min.js"/>
<svg id="graph" class="graph">
<g id="graph0" class="graph" transform="scale(1 1) rotate(0) translate(4 282.25)">
<title>u1_2</title>
<!-- Node1 -->
<g id="Node000001" class="node">
<title>Node1</title>
<g id="a_Node000001"><a xlink:title="Processes student grades and determines grade status.">
<polygon fill="#999999" stroke="#666666" points="113.75,-148.25 76.75,-148.25 76.75,-129 113.75,-129 113.75,-148.25"/>
<text text-anchor="middle" x="95.25" y="-134.75" font-family="Helvetica,sans-Serif" font-size="10.00">u1_2</text>
</a>
</g>
</g>
<!-- Node2 -->
<g id="Node000002" class="node">
<title>Node2</title>
<g id="a_Node000002"><a xlink:href="main_8cpp.html#ae66f6b31b5ad750f1fe042a706a4e3d4" target="_top" xlink:title="Main function of the application.">
<polygon fill="white" stroke="#666666" points="38.88,-278.25 1.88,-278.25 1.88,-259 38.88,-259 38.88,-278.25"/>
<text text-anchor="middle" x="20.38" y="-264.75" font-family="Helvetica,sans-Serif" font-size="10.00">main</text>
</a>
</g>
</g>
<!-- Node1&#45;&gt;Node2 -->
<g id="edge1_Node000001_Node000002" class="edge">
<title>Node1&#45;&gt;Node2</title>
<g id="a_edge1_Node000001_Node000002"><a xlink:title=" ">
<path fill="none" stroke="#63b8ff" d="M87.06,-159.35C78.32,-182.85 62.05,-221.65 40.75,-250.62 38.68,-253.44 36.14,-256.17 33.58,-258.61"/>
<polygon fill="#63b8ff" stroke="#63b8ff" points="90.33,-160.61 90.42,-150.01 83.74,-158.24 90.33,-160.61"/>
</a>
</g>
</g>
<!-- Node3 -->
<g id="Node000003" class="node">
<title>Node3</title>
<g id="a_Node000003"><a xlink:href="tests_8cpp.html#ad9fc52247281da1396b6063f8294314d" target="_top" xlink:title="Test processing student grades that are on the border of failing.">
<polygon fill="white" stroke="#666666" points="40.75,-241.25 0,-241.25 0,-222 40.75,-222 40.75,-241.25"/>
<text text-anchor="middle" x="20.38" y="-227.75" font-family="Helvetica,sans-Serif" font-size="10.00">TEST</text>
</a>
</g>
</g>
<!-- Node1&#45;&gt;Node3 -->
<g id="edge2_Node000001_Node000003" class="edge">
<title>Node1&#45;&gt;Node3</title>
<g id="a_edge2_Node000001_Node000003"><a xlink:title=" ">
<path fill="none" stroke="#63b8ff" d="M82.03,-157.95C71.79,-173.59 56.36,-195.86 40.75,-213.62 38.33,-216.38 35.52,-219.18 32.82,-221.71"/>
<polygon fill="#63b8ff" stroke="#63b8ff" points="84.95,-159.9 87.42,-149.59 79.06,-156.1 84.95,-159.9"/>
</a>
</g>
</g>
<!-- Node4 -->
<g id="Node000004" class="node">
<title>Node4</title>
<g id="a_Node000004"><a xlink:href="tests_8cpp.html#a93c0f4916b52f431f09f75c346d1b2db" target="_top" xlink:title="Test processing student grades that are on the border of passing.">
<polygon fill="white" stroke="#666666" points="40.75,-204.25 0,-204.25 0,-185 40.75,-185 40.75,-204.25"/>
<text text-anchor="middle" x="20.38" y="-190.75" font-family="Helvetica,sans-Serif" font-size="10.00">TEST</text>
</a>
</g>
</g>
<!-- Node1&#45;&gt;Node4 -->
<g id="edge3_Node000001_Node000004" class="edge">
<title>Node1&#45;&gt;Node4</title>
<g id="a_edge3_Node000001_Node000004"><a xlink:title=" ">
<path fill="none" stroke="#63b8ff" d="M72.37,-155.44C59.95,-164.98 44.83,-176.6 34.29,-184.7"/>
<polygon fill="#63b8ff" stroke="#63b8ff" points="74.22,-158.43 80.02,-149.56 69.96,-152.88 74.22,-158.43"/>
</a>
</g>
</g>
<!-- Node5 -->
<g id="Node000005" class="node">
<title>Node5</title>
<g id="a_Node000005"><a xlink:href="tests_8cpp.html#a8acca70ae9c7520a8cb9a8a503c14249" target="_top" xlink:title="Test processing student grades with failing scores.">
<polygon fill="white" stroke="#666666" points="40.75,-167.25 0,-167.25 0,-148 40.75,-148 40.75,-167.25"/>
<text text-anchor="middle" x="20.38" y="-153.75" font-family="Helvetica,sans-Serif" font-size="10.00">TEST</text>
</a>
</g>
</g>
<!-- Node1&#45;&gt;Node5 -->
<g id="edge4_Node000001_Node000005" class="edge">
<title>Node1&#45;&gt;Node5</title>
<g id="a_edge4_Node000001_Node000005"><a xlink:title=" ">
<path fill="none" stroke="#63b8ff" d="M65.59,-146.1C57.42,-148.23 48.69,-150.5 41.17,-152.47"/>
<polygon fill="#63b8ff" stroke="#63b8ff" points="66.35,-149.52 75.14,-143.61 64.58,-142.74 66.35,-149.52"/>
</a>
</g>
</g>
<!-- Node6 -->
<g id="Node000006" class="node">
<title>Node6</title>
<g id="a_Node000006"><a xlink:href="tests_8cpp.html#ac140329d416f9fcb942501a5fc13050e" target="_top" xlink:title="Test processing student grades that almost pass with distinction.">
<polygon fill="white" stroke="#666666" points="40.75,-130.25 0,-130.25 0,-111 40.75,-111 40.75,-130.25"/>
<text text-anchor="middle" x="20.38" y="-116.75" font-family="Helvetica,sans-Serif" font-size="10.00">TEST</text>
</a>
</g>
</g>
<!-- Node1&#45;&gt;Node6 -->
<g id="edge5_Node000001_Node000006" class="edge">
<title>Node1&#45;&gt;Node6</title>
<g id="a_edge5_Node000001_Node000006"><a xlink:title=" ">
<path fill="none" stroke="#63b8ff" d="M65.59,-131.55C57.42,-129.53 48.69,-127.37 41.17,-125.51"/>
<polygon fill="#63b8ff" stroke="#63b8ff" points="64.59,-134.9 75.14,-133.9 66.27,-128.11 64.59,-134.9"/>
</a>
</g>
</g>
<!-- Node7 -->
<g id="Node000007" class="node">
<title>Node7</title>
<g id="a_Node000007"><a xlink:href="tests_8cpp.html#a803a1df1ce6f3396fbddb51b02a58f34" target="_top" xlink:title="Test processing student grades that almost pass.">
<polygon fill="white" stroke="#666666" points="40.75,-93.25 0,-93.25 0,-74 40.75,-74 40.75,-93.25"/>
<text text-anchor="middle" x="20.38" y="-79.75" font-family="Helvetica,sans-Serif" font-size="10.00">TEST</text>
</a>
</g>
</g>
<!-- Node1&#45;&gt;Node7 -->
<g id="edge6_Node000001_Node000007" class="edge">
<title>Node1&#45;&gt;Node7</title>
<g id="a_edge6_Node000001_Node000007"><a xlink:title=" ">
<path fill="none" stroke="#63b8ff" d="M71.78,-121.67C59.62,-112.49 45.01,-101.46 34.66,-93.65"/>
<polygon fill="#63b8ff" stroke="#63b8ff" points="69.59,-124.39 79.68,-127.63 73.8,-118.81 69.59,-124.39"/>
</a>
</g>
</g>
<!-- Node8 -->
<g id="Node000008" class="node">
<title>Node8</title>
<g id="a_Node000008"><a xlink:href="tests_8cpp.html#abeccaa294186c56d1588c1b5441021ca" target="_top" xlink:title="Test processing student grades for perfect scores.">
<polygon fill="white" stroke="#666666" points="40.75,-56.25 0,-56.25 0,-37 40.75,-37 40.75,-56.25"/>
<text text-anchor="middle" x="20.38" y="-42.75" font-family="Helvetica,sans-Serif" font-size="10.00">TEST</text>
</a>
</g>
</g>
<!-- Node1&#45;&gt;Node8 -->
<g id="edge7_Node000001_Node000008" class="edge">
<title>Node1&#45;&gt;Node8</title>
<g id="a_edge7_Node000001_Node000008"><a xlink:title=" ">
<path fill="none" stroke="#63b8ff" d="M81.65,-119.06C71.38,-103.67 56.11,-81.99 40.75,-64.62 38.32,-61.87 35.51,-59.08 32.81,-56.55"/>
<polygon fill="#63b8ff" stroke="#63b8ff" points="78.66,-120.88 87.07,-127.32 84.51,-117.04 78.66,-120.88"/>
</a>
</g>
</g>
<!-- Node9 -->
<g id="Node000009" class="node">
<title>Node9</title>
<g id="a_Node000009"><a xlink:href="tests_8cpp.html#a04392fce8b9c8f16d98a33626f4a405a" target="_top" xlink:title="Test processing student grades with scores for distinction.">
<polygon fill="white" stroke="#666666" points="40.75,-19.25 0,-19.25 0,0 40.75,0 40.75,-19.25"/>
<text text-anchor="middle" x="20.38" y="-5.75" font-family="Helvetica,sans-Serif" font-size="10.00">TEST</text>
</a>
</g>
</g>
<!-- Node1&#45;&gt;Node9 -->
<g id="edge8_Node000001_Node000009" class="edge">
<title>Node1&#45;&gt;Node9</title>
<g id="a_edge8_Node000001_Node000009"><a xlink:title=" ">
<path fill="none" stroke="#63b8ff" d="M87.02,-118.09C78.25,-94.81 61.95,-56.36 40.75,-27.62 38.68,-24.82 36.13,-22.09 33.57,-19.64"/>
<polygon fill="#63b8ff" stroke="#63b8ff" points="83.68,-119.13 90.39,-127.33 90.25,-116.74 83.68,-119.13"/>
</a>
</g>
</g>
</g>
</svg>
</svg>

<style type='text/css'>
<![CDATA[
[data-mouse-over-selected='false'] { opacity: 0.7; }
[data-mouse-over-selected='true']  { opacity: 1.0; }
]]>
</style>
<script type="application/ecmascript"><![CDATA[
document.addEventListener('DOMContentLoaded', (event) => {
  highlightEdges();
  highlightAdjacentNodes();
});
]]></script>
</svg>
