<?xml version="1.0" encoding="UTF-8" standalone="no"?>
<!DOCTYPE svg PUBLIC "-//W3C//DTD SVG 1.1//EN"
 "http://www.w3.org/Graphics/SVG/1.1/DTD/svg11.dtd">
<!-- Generated by graphviz version 9.0.0 (20230911.1827)
 -->
<!-- Title: src/functions.cpp Pages: 1 -->
<svg width="98pt" height="138pt"
 viewBox="0.00 0.00 98.25 137.75" xmlns="http://www.w3.org/2000/svg" xmlns:xlink="http://www.w3.org/1999/xlink">
<g id="graph0" class="graph" transform="scale(1 1) rotate(0) translate(4 133.75)">
<title>src/functions.cpp</title>
<!-- Node1 -->
<g id="Node000001" class="node">
<title>Node1</title>
<g id="a_Node000001"><a xlink:title="Implementation of functions for ZSP VŠPJ 1st Homework Assignment.">
<polygon fill="#999999" stroke="#666666" points="90.25,-129.75 0,-129.75 0,-110.5 90.25,-110.5 90.25,-129.75"/>
<text text-anchor="middle" x="45.12" y="-116.25" font-family="Helvetica,sans-Serif" font-size="10.00">src/functions.cpp</text>
</a>
</g>
</g>
<!-- Node2 -->
<g id="Node000002" class="node">
<title>Node2</title>
<g id="a_Node000002"><a xlink:href="functions_8h.html" target="_top" xlink:title="Function Declarations for ZSP VŠPJ 1st Homework Assignment.">
<polygon fill="white" stroke="#666666" points="76.75,-74.5 13.5,-74.5 13.5,-55.25 76.75,-55.25 76.75,-74.5"/>
<text text-anchor="middle" x="45.12" y="-61" font-family="Helvetica,sans-Serif" font-size="10.00">functions.h</text>
</a>
</g>
</g>
<!-- Node1&#45;&gt;Node2 -->
<g id="edge1_Node000001_Node000002" class="edge">
<title>Node1&#45;&gt;Node2</title>
<g id="a_edge1_Node000001_Node000002"><a xlink:title=" ">
<path fill="none" stroke="#63b8ff" d="M45.12,-110.33C45.12,-103.82 45.12,-94.67 45.12,-86.37"/>
<polygon fill="#63b8ff" stroke="#63b8ff" points="48.63,-86.37 45.13,-76.37 41.63,-86.37 48.63,-86.37"/>
</a>
</g>
</g>
<!-- Node3 -->
<g id="Node000003" class="node">
<title>Node3</title>
<g id="a_Node000003"><a xlink:title=" ">
<polygon fill="#e0e0e0" stroke="#999999" points="67.38,-19.25 22.88,-19.25 22.88,0 67.38,0 67.38,-19.25"/>
<text text-anchor="middle" x="45.12" y="-5.75" font-family="Helvetica,sans-Serif" font-size="10.00">stdio.h</text>
</a>
</g>
</g>
<!-- Node2&#45;&gt;Node3 -->
<g id="edge2_Node000002_Node000003" class="edge">
<title>Node2&#45;&gt;Node3</title>
<g id="a_edge2_Node000002_Node000003"><a xlink:title=" ">
<path fill="none" stroke="#63b8ff" d="M45.12,-55.08C45.12,-48.57 45.12,-39.42 45.12,-31.12"/>
<polygon fill="#63b8ff" stroke="#63b8ff" points="48.63,-31.12 45.13,-21.12 41.63,-31.12 48.63,-31.12"/>
</a>
</g>
</g>
</g>
</svg>
